<svg width="498" height="108" viewBox="0 0 498 108" fill="none" xmlns="http://www.w3.org/2000/svg">
<path d="M170.73 69.972C165.656 74.96 161.012 75.906 157.572 75.906C150.52 75.906 146.392 72.294 145.188 71.09C142.608 68.596 140.2 64.382 140.2 58.448C140.2 52.944 142.436 48.3 145.618 45.204C148.628 42.28 152.498 40.732 157.314 40.732C163.42 40.732 167.806 43.742 170.73 46.838V31.53C165.14 29.122 160.754 28.348 156.97 28.348C148.026 28.348 140.63 31.702 135.556 36.604C130.396 41.592 126.612 49.16 126.612 58.19C126.612 67.392 130.396 74.96 135.556 79.948C140.372 84.678 147.51 88.29 158.088 88.29C161.528 88.29 165.656 87.774 170.73 85.194V69.972ZM223.058 67.822C223.058 62.92 221.166 57.416 217.296 53.546C213.856 50.106 208.008 47.354 200.526 47.354C193.044 47.354 187.196 50.106 183.756 53.546C179.886 57.416 177.994 62.92 177.994 67.822C177.994 72.724 179.886 78.228 183.756 82.098C187.196 85.538 193.044 88.29 200.526 88.29C208.008 88.29 213.856 85.538 217.296 82.098C221.166 78.228 223.058 72.724 223.058 67.822ZM200.526 57.846C203.364 57.846 205.686 58.792 207.492 60.598C209.298 62.404 210.33 64.726 210.33 67.822C210.33 70.918 209.298 73.24 207.492 75.046C205.686 76.852 203.364 77.798 200.612 77.798C197.344 77.798 195.108 76.594 193.56 75.046C192.098 73.584 190.722 71.348 190.722 67.822C190.722 64.726 191.754 62.404 193.56 60.598C195.366 58.792 197.688 57.846 200.526 57.846ZM230.781 87H243.165V67.306C243.165 64.812 243.509 62.06 245.573 59.996C246.519 58.964 248.153 57.932 250.733 57.932C252.969 57.932 254.517 58.706 255.463 59.652C257.441 61.63 257.527 64.812 257.527 67.306V87H269.911V62.748C269.911 59.652 269.653 55.094 266.041 51.482C262.773 48.214 258.387 47.612 255.033 47.612C251.421 47.612 246.949 48.386 243.165 53.202V48.644H230.781V87ZM307.032 50.622C303.936 48.816 299.98 47.354 294.304 47.354C290.778 47.354 286.134 48.042 282.694 51.224C280.458 53.288 278.996 56.384 278.996 60.082C278.996 63.006 279.942 65.156 281.748 67.048C283.382 68.682 285.704 69.886 287.94 70.574L291.036 71.52C292.842 72.036 293.96 72.38 294.82 72.896C295.938 73.584 296.196 74.444 296.196 75.132C296.196 76.078 295.68 77.024 294.906 77.626C293.788 78.486 291.81 78.486 291.036 78.486C289.402 78.486 287.596 78.142 285.876 77.282C284.586 76.68 282.866 75.476 281.662 74.444L276.416 82.786C281.404 87.172 286.994 88.29 292.154 88.29C296.196 88.29 300.84 87.688 304.624 83.904C306.344 82.184 308.58 78.916 308.58 73.842C308.58 70.918 307.806 68.596 305.57 66.532C303.592 64.726 301.356 63.866 299.206 63.178L295.938 62.146C294.39 61.63 293.1 61.372 292.24 60.856C291.638 60.512 291.036 59.996 291.036 59.136C291.036 58.534 291.38 57.846 291.81 57.416C292.584 56.642 294.046 56.298 295.336 56.298C297.744 56.298 300.238 57.33 302.13 58.448L307.032 50.622ZM315.941 48.644V71.778C315.941 75.992 316.629 79.862 320.155 83.302C324.541 87.602 330.905 88.29 335.635 88.29C340.193 88.29 346.643 87.602 351.029 83.302C354.899 79.518 355.329 75.39 355.329 71.004V48.644H342.945V69.8C342.945 71.692 342.687 74.272 340.881 75.992C339.763 77.024 337.957 77.798 335.635 77.798C332.883 77.798 331.335 76.766 330.475 75.992C328.497 74.186 328.325 71.52 328.325 69.8V48.644H315.941ZM365.332 24.306V87H377.716V24.306H365.332ZM408.046 58.62V48.644H400.392V36.26H388.008V48.644H383.708V58.62H388.008V87H400.392V58.62H408.046ZM442.775 52.944C439.249 48.128 434.003 47.354 430.735 47.354C425.403 47.354 420.759 49.246 417.405 52.6C413.879 56.126 411.471 61.63 411.471 68.08C411.471 73.154 413.019 78.142 417.061 82.442C421.275 86.914 425.919 88.29 431.423 88.29C434.605 88.29 439.421 87.516 442.775 82.356V87H455.159V48.644H442.775V52.944ZM433.831 58.018C436.067 58.018 438.819 58.878 440.711 60.684C442.517 62.404 443.549 64.984 443.549 67.736C443.549 71.004 442.173 73.412 440.539 74.96C438.905 76.594 436.583 77.626 434.089 77.626C431.165 77.626 428.499 76.422 426.779 74.616C425.661 73.412 424.199 71.176 424.199 67.736C424.199 64.296 425.747 62.06 427.037 60.77C428.671 59.136 431.165 58.018 433.831 58.018ZM464.761 87H477.145V71.434C477.145 68.166 477.403 64.038 480.155 61.114C481.703 59.48 483.681 58.534 486.347 58.534C488.497 58.534 490.303 59.05 491.937 59.91L492.625 48.3C491.249 47.87 490.131 47.698 488.583 47.698C486.175 47.698 484.025 48.042 481.961 49.332C479.983 50.536 478.263 52.514 477.145 54.664V48.644H464.761V87Z" fill="#232F4B"/>
<g clip-path="url(#clip0)">
<path d="M61.8553 23.3907V20.3498H43.5877V40.0852V94.4474C44.4463 94.6177 45.3109 94.7667 46.1756 94.8853H46.2121H46.2487L46.4801 94.9218L46.7145 94.9431L47.4026 95.0131L48.663 95.1438L49.9326 95.2107L50.6207 95.2472H50.6603C50.7851 95.2472 50.91 95.2624 50.9952 95.2624H53.1599H53.4157H53.6684L54.1799 95.2411L54.6061 95.2259L54.5878 95.0769L55.0476 95.0343V94.7303V94.4262V94.1221C55.0476 93.8697 55.0658 93.6082 55.0811 93.3223C55.1843 91.2509 55.4448 89.1904 55.8605 87.1584V87.1432V87.128C56.2375 85.3141 56.7692 83.5358 57.4497 81.8125C57.6416 81.3199 57.8455 80.8455 58.0769 80.362C58.2018 80.0944 58.3327 79.8237 58.4697 79.5561C58.5454 79.3857 58.6297 79.2193 58.7224 79.0574C59.2379 78.0682 59.8155 77.1124 60.4517 76.196V76.196V76.1807C60.8597 75.603 61.3103 75.0222 61.7883 74.4505V40.0883L61.8553 23.3907Z" fill="#3757F7"/>
<path d="M66.9976 0.611206V40.0882V70.0837C68.3926 69.2477 69.8725 68.5617 71.4122 68.0371C72.3926 67.6996 73.5434 67.3012 74.7034 66.8816C78.2078 65.6044 81.5477 64.2877 83.7368 63.4089L85.2743 62.8007V58.3336V0.611206H66.9976Z" fill="#3757F7"/>
<path d="M20.1656 46.1639V81.5996L20.47 81.9037L21.4565 82.895L21.4809 82.9193L21.5052 82.9437C21.5448 82.9832 21.6514 83.0805 21.7396 83.1596L21.8158 83.2265L22.3181 83.6826L22.7109 84.0384C22.8996 84.2117 23.0793 84.3759 23.2345 84.5067L24.3062 85.3916L24.7842 85.7899L25.0217 85.9694L25.244 86.1366L26.3583 86.9668L26.3857 86.9881L26.4131 87.0094C26.4831 87.0641 26.6171 87.1553 26.7511 87.2435L27.3234 87.6297C30.1359 89.5574 33.1658 91.1476 36.3507 92.3674H36.3689C37.054 92.6289 37.7451 92.8692 38.4423 93.0942V40.0882H20.1747L20.1656 46.1639Z" fill="#3757F7"/>
<path d="M104.181 57.8623C104.161 57.8697 104.143 57.8823 104.129 57.8988C104.1 57.9132 104.073 57.9305 104.047 57.9505C103.865 58.066 103.524 58.285 103.046 58.5799C102.345 59.0026 101.328 59.5956 100.068 60.2616C99.7635 60.4227 99.4286 60.6022 99.0815 60.7724L99.0572 60.9002C97.8393 61.56 96.454 62.2868 94.9287 63.0501C93.5982 63.6978 92.1429 64.3668 90.6267 65.0236C90.6267 65.0236 89.9721 65.3064 88.8578 65.7595C87.9444 66.1396 86.7266 66.6444 85.2926 67.2161C82.6925 68.2622 79.4226 69.5394 76.1375 70.7375C75.011 71.148 73.8814 71.5372 72.7701 71.9204C70.6728 72.6188 68.7236 73.7005 67.0219 75.1103C66.5225 75.5274 66.0506 75.9764 65.6092 76.4544C65.5912 76.4653 65.5757 76.4798 65.5636 76.4969C65.5423 76.5121 65.5209 76.5365 65.4996 76.5486C64.9347 77.1849 64.4042 77.8508 63.9104 78.5435C63.3585 79.3377 62.8602 80.1677 62.4185 81.0279C62.3668 81.1093 62.324 81.1959 62.2906 81.2864C62.1506 81.554 62.0166 81.8276 61.8887 82.1013C61.7 82.4997 61.5264 82.898 61.3651 83.3177C60.7707 84.8341 60.3042 86.3975 59.9706 87.9916C59.596 89.8189 59.3619 91.6721 59.2704 93.5351C59.2521 93.8848 59.243 94.2254 59.2308 94.5599C59.2308 94.642 59.2308 94.7272 59.2308 94.8093C59.5353 94.8093 59.855 94.7697 60.1716 94.7393C60.7499 94.6681 61.3241 94.5666 61.8918 94.4352C62.3089 94.344 62.723 94.2406 63.1401 94.1311C64.1487 93.8428 65.1399 93.4966 66.1086 93.0942L66.8453 92.7901L67.0311 92.705L67.5761 92.4586C68.0632 92.2427 68.5412 92.0025 69.0222 91.7592C70.9515 90.7683 72.8229 89.6688 74.6273 88.4659C76.4541 87.2678 78.2078 85.9481 79.9493 84.604C81.776 83.1545 83.5622 81.6462 85.3078 80.0791C86.8544 78.6925 88.3717 77.2734 89.8594 75.8219C92.9802 72.7323 96.0248 69.4937 98.9963 66.1761C96.3018 69.7127 93.516 73.1702 90.5749 76.5395C88.8618 78.4958 87.0939 80.4075 85.2712 82.2747C83.9621 83.6106 82.6214 84.9162 81.2493 86.1913C79.5839 87.6966 77.9003 89.1866 76.1009 90.5733C74.3066 91.9782 72.4342 93.2808 70.4928 94.4748C69.9996 94.7789 69.5094 95.0829 68.9979 95.3475L68.2367 95.7641L67.4604 96.1594L66.9945 96.3875C66.0994 96.8234 65.1769 97.2177 64.227 97.5704C63.4511 97.8633 62.6593 98.112 61.8553 98.3154C61.4869 98.4097 61.1154 98.4948 60.7348 98.5709C60.2416 98.659 59.7454 98.7411 59.2278 98.7898C59.2278 98.8233 59.2278 98.8537 59.243 98.8871C58.3692 99.0179 57.4924 99.1213 56.6094 99.1912L55.2394 99.2946C54.7796 99.3372 54.326 99.3372 53.8632 99.3615C53.6318 99.3615 53.4035 99.3858 53.1751 99.3858H51.0135C50.8125 99.3858 50.6146 99.3858 50.4045 99.3615L49.7165 99.325L48.3372 99.2551L46.9641 99.1091L46.2791 99.0392L45.9351 99.0057L45.5941 98.951C44.9151 98.8567 44.2423 98.7442 43.5694 98.6226C41.8353 98.3114 40.1196 97.9053 38.4301 97.4062C37.2367 97.0535 36.0523 96.6581 34.8862 96.2142C31.4137 94.8888 28.1091 93.1609 25.04 91.0659L24.4615 90.6767C24.2697 90.5459 24.0749 90.4182 23.8922 90.2753L22.7718 89.436C22.5861 89.2961 22.3973 89.1593 22.2146 89.0163L21.6879 88.5754L20.6071 87.6844C20.4579 87.5598 20.3026 87.429 20.1656 87.2952L19.5567 86.7509L19.0391 86.2795C18.8656 86.1214 18.692 85.9754 18.5276 85.7991L17.5381 84.8077L17.051 84.3181L16.5791 83.7982C11.4393 78.2623 7.65789 71.6092 5.53328 64.3637C4.45282 60.7284 3.80593 56.9783 3.60605 53.1915C3.39122 49.3855 3.60569 45.5675 4.24542 41.8094C4.30631 41.335 4.42505 40.8728 4.51943 40.4014L4.82389 38.9996L5.18315 37.6129L5.36278 36.9196L5.45412 36.5729L5.56068 36.2293L5.99301 34.8579C6.06304 34.6328 6.13307 34.4017 6.21223 34.1767L6.45884 33.5016L6.95815 32.1545C7.12256 31.7045 7.32655 31.2696 7.51227 30.8256C9.01276 27.2778 10.9246 23.918 13.2087 20.815C17.8074 14.5272 23.796 9.38354 30.709 5.7838C34.172 3.96883 37.8364 2.56648 41.627 1.6056C45.4388 0.633133 49.3486 0.0945096 53.2817 0C52.9437 0 52.6058 0 52.2648 0C48.6506 0.000404141 45.0461 0.372341 41.5082 1.10993C37.6183 1.91584 33.8371 3.17741 30.2432 4.86849C22.9662 8.25862 16.5717 13.282 11.5585 19.5469C9.03484 22.686 6.88892 26.1102 5.16488 29.7492C4.94872 30.2053 4.71733 30.6614 4.51943 31.1176L3.93487 32.5133L3.63041 33.2158C3.53907 33.4499 3.45991 33.6871 3.36857 33.9243L2.86013 35.3596L2.73225 35.7154L2.61656 36.0773L2.3943 36.804L1.94675 38.2576L1.57226 39.7294C1.45352 40.222 1.31043 40.7086 1.22213 41.2103C0.361519 45.1839 -0.0470164 49.2419 0.00429558 53.307C0.0426092 57.3951 0.562756 61.4645 1.55399 65.4311C3.53868 73.4519 7.3605 80.9031 12.7185 87.1979L13.2178 87.7909L13.7385 88.3656L14.7858 89.509C14.9593 89.7036 15.1451 89.883 15.3277 90.0655L15.8758 90.6128C16.2472 90.9747 16.6065 91.3487 16.987 91.6984L18.141 92.7415L18.7194 93.2614C18.9173 93.4287 19.1183 93.5899 19.3283 93.7571L20.1778 94.4504L20.534 94.7545C20.7319 94.9218 20.9389 95.0769 21.1429 95.2289L21.7701 95.6942C25.1095 98.1902 28.7298 100.287 32.5571 101.943C34.4781 102.774 36.4451 103.495 38.4484 104.102C40.1371 104.613 41.8502 105.043 43.5877 105.392C43.9074 105.455 44.2301 105.522 44.5528 105.583L44.9395 105.659L45.3292 105.717L46.1056 105.833L47.6644 106.061L49.2324 106.213L50.0179 106.289C50.2797 106.316 50.5415 106.34 50.8034 106.346L52.3774 106.419L53.166 106.456C53.4278 106.456 53.6896 106.456 53.9515 106.456H54.9044C55.1115 106.456 55.3216 106.456 55.5316 106.456L57.1087 106.407C58.698 106.328 60.2842 106.176 61.8613 105.963C63.5866 105.732 65.2997 105.419 67.0006 105.024C67.5304 104.902 68.0601 104.771 68.5838 104.631L68.4072 104.771C71.2366 104.048 74.0014 103.093 76.6733 101.916C79.6787 100.596 82.5575 99.0066 85.2743 97.166V97.166C85.8071 96.8071 86.3369 96.4331 86.8544 96.053C92.5936 91.5384 97.1631 85.713 100.178 79.0669C103.194 72.4209 104.566 65.1487 104.181 57.8623V57.8623Z" fill="#3757F7"/>
</g>
<defs>
<clipPath id="clip0">
<rect width="104.25" height="106.468" fill="white"/>
</clipPath>
</defs>
</svg>
